<?xml version="1.0" encoding="utf-8"?>
<!-- Generator: Adobe Illustrator 21.0.2, SVG Export Plug-In . SVG Version: 6.00 Build 0)  -->
<svg version="1.1" id="Layer_1" xmlns="http://www.w3.org/2000/svg" xmlns:xlink="http://www.w3.org/1999/xlink" x="0px" y="0px"
	 viewBox="0 0 189.5 19.5" style="enable-background:new 0 0 189.5 19.5;" xml:space="preserve">
<style type="text/css">
	.st0{fill:#E11E33;}
</style>
<g>
	<path class="st0" d="M188.8,3.5c-1.4,0-2.2-0.7-2.8-1.2c-0.5-0.5-0.9-0.8-1.8-0.8c-0.9,0-1.3,0.3-1.8,0.8c-0.6,0.5-1.4,1.2-2.8,1.2
		c-1.4,0-2.2-0.7-2.8-1.2c-0.5-0.5-0.9-0.8-1.8-0.8c-0.9,0-1.3,0.3-1.8,0.8c-0.6,0.5-1.4,1.2-2.8,1.2s-2.2-0.7-2.8-1.2
		c-0.5-0.5-0.9-0.8-1.8-0.8c-0.9,0-1.3,0.3-1.8,0.8c-0.6,0.5-1.4,1.2-2.8,1.2s-2.2-0.7-2.8-1.2c-0.5-0.5-0.9-0.8-1.8-0.8
		s-1.3,0.3-1.8,0.8c-0.6,0.5-1.4,1.2-2.8,1.2c-1.4,0-2.2-0.7-2.8-1.2c-0.5-0.5-0.9-0.8-1.8-0.8s-1.3,0.3-1.8,0.8
		c-0.6,0.5-1.4,1.2-2.8,1.2c-1.4,0-2.2-0.7-2.8-1.2c-0.5-0.5-0.9-0.8-1.8-0.8c-0.9,0-1.3,0.3-1.8,0.8c-0.6,0.5-1.4,1.2-2.8,1.2
		c-1.4,0-2.2-0.7-2.8-1.2c-0.5-0.5-0.9-0.8-1.8-0.8c-0.9,0-1.3,0.3-1.8,0.8c-0.6,0.5-1.4,1.2-2.8,1.2s-2.2-0.7-2.8-1.2
		c-0.5-0.5-0.9-0.8-1.8-0.8c-0.9,0-1.3,0.3-1.8,0.8c-0.6,0.5-1.4,1.2-2.8,1.2s-2.2-0.7-2.8-1.2c-0.5-0.5-0.9-0.8-1.8-0.8
		c-0.9,0-1.3,0.3-1.8,0.8c-0.6,0.5-1.4,1.2-2.8,1.2s-2.2-0.7-2.8-1.2c-0.5-0.5-0.9-0.8-1.8-0.8s-1.3,0.3-1.8,0.8
		c-0.6,0.5-1.4,1.2-2.8,1.2c-1.4,0-2.2-0.7-2.8-1.2c-0.5-0.5-0.9-0.8-1.8-0.8c-0.9,0-1.3,0.3-1.8,0.8c-0.6,0.5-1.4,1.2-2.8,1.2
		c-1.4,0-2.2-0.7-2.8-1.2c-0.5-0.5-0.9-0.8-1.8-0.8S82,1.8,81.4,2.3c-0.6,0.5-1.4,1.2-2.8,1.2c-1.4,0-2.2-0.7-2.8-1.2
		c-0.5-0.5-0.9-0.8-1.8-0.8c-0.9,0-1.3,0.3-1.8,0.8c-0.6,0.5-1.4,1.2-2.8,1.2c-1.4,0-2.2-0.7-2.8-1.2c-0.5-0.5-0.9-0.8-1.8-0.8
		c-0.9,0-1.3,0.3-1.8,0.8c-0.6,0.5-1.4,1.2-2.8,1.2c-1.4,0-2.2-0.7-2.8-1.2c-0.5-0.5-0.9-0.8-1.8-0.8c-0.9,0-1.3,0.3-1.8,0.8
		c-0.6,0.5-1.4,1.2-2.8,1.2c-1.4,0-2.2-0.7-2.8-1.2c-0.5-0.5-0.9-0.8-1.8-0.8c-0.9,0-1.3,0.3-1.8,0.8c-0.6,0.5-1.4,1.2-2.8,1.2
		c-1.4,0-2.2-0.7-2.8-1.2c-0.5-0.5-0.9-0.8-1.8-0.8c-0.9,0-1.3,0.3-1.8,0.8c-0.6,0.5-1.4,1.2-2.8,1.2S30.6,2.8,30,2.3
		c-0.5-0.5-0.9-0.8-1.8-0.8c-0.9,0-1.3,0.3-1.8,0.8c-0.6,0.5-1.4,1.2-2.8,1.2c-1.4,0-2.2-0.7-2.8-1.2c-0.5-0.5-0.9-0.8-1.8-0.8
		s-1.3,0.3-1.8,0.8c-0.6,0.5-1.4,1.2-2.8,1.2c-1.4,0-2.2-0.7-2.8-1.2c-0.5-0.5-0.9-0.8-1.8-0.8c-0.9,0-1.3,0.3-1.8,0.8
		C7.5,2.8,6.8,3.5,5.3,3.5S3.2,2.8,2.5,2.3C2,1.8,1.6,1.5,0.8,1.5C0.3,1.5,0,1.2,0,0.8S0.3,0,0.8,0c1.4,0,2.2,0.7,2.8,1.2
		C4.1,1.7,4.5,2,5.3,2c0.9,0,1.3-0.3,1.8-0.8C7.7,0.7,8.5,0,9.9,0c1.4,0,2.2,0.7,2.8,1.2C13.2,1.7,13.6,2,14.5,2
		c0.9,0,1.3-0.3,1.8-0.8C16.9,0.7,17.7,0,19.1,0s2.2,0.7,2.8,1.2C22.4,1.7,22.8,2,23.7,2s1.3-0.3,1.8-0.8C26.1,0.7,26.8,0,28.2,0
		s2.2,0.7,2.8,1.2C31.6,1.7,32,2,32.8,2s1.3-0.3,1.8-0.8C35.2,0.7,36,0,37.4,0s2.2,0.7,2.8,1.2C40.7,1.7,41.1,2,42,2
		c0.9,0,1.3-0.3,1.8-0.8C44.4,0.7,45.1,0,46.6,0c1.4,0,2.2,0.7,2.8,1.2C49.9,1.7,50.3,2,51.2,2C52,2,52.4,1.7,53,1.2
		C53.6,0.7,54.3,0,55.7,0c1.4,0,2.2,0.7,2.8,1.2C59.1,1.7,59.5,2,60.3,2c0.9,0,1.3-0.3,1.8-0.8C62.7,0.7,63.5,0,64.9,0
		s2.2,0.7,2.8,1.2C68.2,1.7,68.6,2,69.5,2s1.3-0.3,1.8-0.8C71.9,0.7,72.6,0,74.1,0c1.4,0,2.2,0.7,2.8,1.2C77.4,1.7,77.8,2,78.7,2
		s1.3-0.3,1.8-0.8C81.1,0.7,81.8,0,83.2,0c1.4,0,2.2,0.7,2.8,1.2C86.6,1.7,87,2,87.8,2s1.3-0.3,1.8-0.8C90.2,0.7,91,0,92.4,0
		c1.4,0,2.2,0.7,2.8,1.2C95.7,1.7,96.1,2,97,2c0.9,0,1.3-0.3,1.8-0.8c0.6-0.5,1.4-1.2,2.8-1.2s2.2,0.7,2.8,1.2
		c0.5,0.5,0.9,0.8,1.8,0.8s1.3-0.3,1.8-0.8c0.6-0.5,1.4-1.2,2.8-1.2c1.4,0,2.2,0.7,2.8,1.2c0.5,0.5,0.9,0.8,1.8,0.8s1.3-0.3,1.8-0.8
		c0.6-0.5,1.4-1.2,2.8-1.2s2.2,0.7,2.8,1.2c0.5,0.5,0.9,0.8,1.8,0.8c0.9,0,1.3-0.3,1.8-0.8c0.6-0.5,1.4-1.2,2.8-1.2s2.2,0.7,2.8,1.2
		c0.5,0.5,0.9,0.8,1.8,0.8c0.9,0,1.3-0.3,1.8-0.8c0.6-0.5,1.4-1.2,2.8-1.2c1.4,0,2.2,0.7,2.8,1.2c0.5,0.5,0.9,0.8,1.8,0.8
		c0.9,0,1.3-0.3,1.8-0.8c0.6-0.5,1.4-1.2,2.8-1.2c1.4,0,2.2,0.7,2.8,1.2c0.5,0.5,0.9,0.8,1.8,0.8c0.9,0,1.3-0.3,1.8-0.8
		c0.6-0.5,1.4-1.2,2.8-1.2c1.4,0,2.2,0.7,2.8,1.2c0.5,0.5,0.9,0.8,1.8,0.8s1.3-0.3,1.8-0.8c0.6-0.5,1.4-1.2,2.8-1.2
		c1.4,0,2.2,0.7,2.8,1.2c0.5,0.5,0.9,0.8,1.8,0.8s1.3-0.3,1.8-0.8c0.6-0.5,1.4-1.2,2.8-1.2c1.4,0,2.2,0.7,2.8,1.2
		c0.5,0.5,0.9,0.8,1.8,0.8c0.9,0,1.3-0.3,1.8-0.8c0.6-0.5,1.4-1.2,2.8-1.2c1.4,0,2.2,0.7,2.8,1.2c0.5,0.5,0.9,0.8,1.8,0.8
		c0.4,0,0.8,0.3,0.8,0.8S189.2,3.5,188.8,3.5z"/>
</g>
<g>
	<path class="st0" d="M188.8,11.5c-1.4,0-2.2-0.7-2.8-1.2c-0.5-0.5-0.9-0.8-1.8-0.8c-0.9,0-1.3,0.3-1.8,0.8
		c-0.6,0.5-1.4,1.2-2.8,1.2c-1.4,0-2.2-0.7-2.8-1.2c-0.5-0.5-0.9-0.8-1.8-0.8c-0.9,0-1.3,0.3-1.8,0.8c-0.6,0.5-1.4,1.2-2.8,1.2
		s-2.2-0.7-2.8-1.2c-0.5-0.5-0.9-0.8-1.8-0.8c-0.9,0-1.3,0.3-1.8,0.8c-0.6,0.5-1.4,1.2-2.8,1.2s-2.2-0.7-2.8-1.2
		c-0.5-0.5-0.9-0.8-1.8-0.8s-1.3,0.3-1.8,0.8c-0.6,0.5-1.4,1.2-2.8,1.2c-1.4,0-2.2-0.7-2.8-1.2c-0.5-0.5-0.9-0.8-1.8-0.8
		s-1.3,0.3-1.8,0.8c-0.6,0.5-1.4,1.2-2.8,1.2c-1.4,0-2.2-0.7-2.8-1.2c-0.5-0.5-0.9-0.8-1.8-0.8c-0.9,0-1.3,0.3-1.8,0.8
		c-0.6,0.5-1.4,1.2-2.8,1.2c-1.4,0-2.2-0.7-2.8-1.2c-0.5-0.5-0.9-0.8-1.8-0.8c-0.9,0-1.3,0.3-1.8,0.8c-0.6,0.5-1.4,1.2-2.8,1.2
		s-2.2-0.7-2.8-1.2c-0.5-0.5-0.9-0.8-1.8-0.8c-0.9,0-1.3,0.3-1.8,0.8c-0.6,0.5-1.4,1.2-2.8,1.2s-2.2-0.7-2.8-1.2
		c-0.5-0.5-0.9-0.8-1.8-0.8c-0.9,0-1.3,0.3-1.8,0.8c-0.6,0.5-1.4,1.2-2.8,1.2s-2.2-0.7-2.8-1.2c-0.5-0.5-0.9-0.8-1.8-0.8
		s-1.3,0.3-1.8,0.8c-0.6,0.5-1.4,1.2-2.8,1.2c-1.4,0-2.2-0.7-2.8-1.2c-0.5-0.5-0.9-0.8-1.8-0.8c-0.9,0-1.3,0.3-1.8,0.8
		c-0.6,0.5-1.4,1.2-2.8,1.2c-1.4,0-2.2-0.7-2.8-1.2c-0.5-0.5-0.9-0.8-1.8-0.8s-1.3,0.3-1.8,0.8c-0.6,0.5-1.4,1.2-2.8,1.2
		c-1.4,0-2.2-0.7-2.8-1.2c-0.5-0.5-0.9-0.8-1.8-0.8c-0.9,0-1.3,0.3-1.8,0.8c-0.6,0.5-1.4,1.2-2.8,1.2c-1.4,0-2.2-0.7-2.8-1.2
		c-0.5-0.5-0.9-0.8-1.8-0.8c-0.9,0-1.3,0.3-1.8,0.8c-0.6,0.5-1.4,1.2-2.8,1.2c-1.4,0-2.2-0.7-2.8-1.2c-0.5-0.5-0.9-0.8-1.8-0.8
		c-0.9,0-1.3,0.3-1.8,0.8c-0.6,0.5-1.4,1.2-2.8,1.2c-1.4,0-2.2-0.7-2.8-1.2c-0.5-0.5-0.9-0.8-1.8-0.8c-0.9,0-1.3,0.3-1.8,0.8
		c-0.6,0.5-1.4,1.2-2.8,1.2c-1.4,0-2.2-0.7-2.8-1.2c-0.5-0.5-0.9-0.8-1.8-0.8c-0.9,0-1.3,0.3-1.8,0.8c-0.6,0.5-1.4,1.2-2.8,1.2
		s-2.2-0.7-2.8-1.2c-0.5-0.5-0.9-0.8-1.8-0.8c-0.9,0-1.3,0.3-1.8,0.8c-0.6,0.5-1.4,1.2-2.8,1.2c-1.4,0-2.2-0.7-2.8-1.2
		c-0.5-0.5-0.9-0.8-1.8-0.8s-1.3,0.3-1.8,0.8c-0.6,0.5-1.4,1.2-2.8,1.2c-1.4,0-2.2-0.7-2.8-1.2c-0.5-0.5-0.9-0.8-1.8-0.8
		c-0.9,0-1.3,0.3-1.8,0.8c-0.6,0.5-1.4,1.2-2.8,1.2s-2.2-0.7-2.8-1.2C2,9.8,1.6,9.5,0.8,9.5C0.3,9.5,0,9.2,0,8.8S0.3,8,0.8,8
		c1.4,0,2.2,0.7,2.8,1.2C4.1,9.7,4.5,10,5.3,10c0.9,0,1.3-0.3,1.8-0.8C7.7,8.7,8.5,8,9.9,8c1.4,0,2.2,0.7,2.8,1.2
		c0.5,0.5,0.9,0.8,1.8,0.8c0.9,0,1.3-0.3,1.8-0.8C16.9,8.7,17.7,8,19.1,8s2.2,0.7,2.8,1.2c0.5,0.5,0.9,0.8,1.8,0.8s1.3-0.3,1.8-0.8
		C26.1,8.7,26.8,8,28.2,8s2.2,0.7,2.8,1.2C31.6,9.7,32,10,32.8,10s1.3-0.3,1.8-0.8C35.2,8.7,36,8,37.4,8s2.2,0.7,2.8,1.2
		C40.7,9.7,41.1,10,42,10c0.9,0,1.3-0.3,1.8-0.8C44.4,8.7,45.1,8,46.6,8c1.4,0,2.2,0.7,2.8,1.2c0.5,0.5,0.9,0.8,1.8,0.8
		c0.9,0,1.3-0.3,1.8-0.8C53.6,8.7,54.3,8,55.7,8c1.4,0,2.2,0.7,2.8,1.2c0.5,0.5,0.9,0.8,1.8,0.8c0.9,0,1.3-0.3,1.8-0.8
		C62.7,8.7,63.5,8,64.9,8s2.2,0.7,2.8,1.2c0.5,0.5,0.9,0.8,1.8,0.8s1.3-0.3,1.8-0.8C71.9,8.7,72.6,8,74.1,8c1.4,0,2.2,0.7,2.8,1.2
		c0.5,0.5,0.9,0.8,1.8,0.8s1.3-0.3,1.8-0.8C81.1,8.7,81.8,8,83.2,8c1.4,0,2.2,0.7,2.8,1.2C86.6,9.7,87,10,87.8,10s1.3-0.3,1.8-0.8
		C90.2,8.7,91,8,92.4,8c1.4,0,2.2,0.7,2.8,1.2C95.7,9.7,96.1,10,97,10c0.9,0,1.3-0.3,1.8-0.8c0.6-0.5,1.4-1.2,2.8-1.2
		s2.2,0.7,2.8,1.2c0.5,0.5,0.9,0.8,1.8,0.8s1.3-0.3,1.8-0.8c0.6-0.5,1.4-1.2,2.8-1.2c1.4,0,2.2,0.7,2.8,1.2c0.5,0.5,0.9,0.8,1.8,0.8
		s1.3-0.3,1.8-0.8c0.6-0.5,1.4-1.2,2.8-1.2s2.2,0.7,2.8,1.2c0.5,0.5,0.9,0.8,1.8,0.8c0.9,0,1.3-0.3,1.8-0.8c0.6-0.5,1.4-1.2,2.8-1.2
		s2.2,0.7,2.8,1.2c0.5,0.5,0.9,0.8,1.8,0.8c0.9,0,1.3-0.3,1.8-0.8c0.6-0.5,1.4-1.2,2.8-1.2c1.4,0,2.2,0.7,2.8,1.2
		c0.5,0.5,0.9,0.8,1.8,0.8c0.9,0,1.3-0.3,1.8-0.8c0.6-0.5,1.4-1.2,2.8-1.2c1.4,0,2.2,0.7,2.8,1.2c0.5,0.5,0.9,0.8,1.8,0.8
		c0.9,0,1.3-0.3,1.8-0.8c0.6-0.5,1.4-1.2,2.8-1.2c1.4,0,2.2,0.7,2.8,1.2c0.5,0.5,0.9,0.8,1.8,0.8s1.3-0.3,1.8-0.8
		c0.6-0.5,1.4-1.2,2.8-1.2c1.4,0,2.2,0.7,2.8,1.2c0.5,0.5,0.9,0.8,1.8,0.8s1.3-0.3,1.8-0.8c0.6-0.5,1.4-1.2,2.8-1.2
		c1.4,0,2.2,0.7,2.8,1.2c0.5,0.5,0.9,0.8,1.8,0.8c0.9,0,1.3-0.3,1.8-0.8c0.6-0.5,1.4-1.2,2.8-1.2c1.4,0,2.2,0.7,2.8,1.2
		c0.5,0.5,0.9,0.8,1.8,0.8c0.4,0,0.8,0.3,0.8,0.8S189.2,11.5,188.8,11.5z"/>
</g>
<g>
	<path class="st0" d="M188.8,19.5c-1.4,0-2.2-0.7-2.8-1.2c-0.5-0.5-0.9-0.8-1.8-0.8c-0.9,0-1.3,0.3-1.8,0.8
		c-0.6,0.5-1.4,1.2-2.8,1.2c-1.4,0-2.2-0.7-2.8-1.2c-0.5-0.5-0.9-0.8-1.8-0.8c-0.9,0-1.3,0.3-1.8,0.8c-0.6,0.5-1.4,1.2-2.8,1.2
		s-2.2-0.7-2.8-1.2c-0.5-0.5-0.9-0.8-1.8-0.8c-0.9,0-1.3,0.3-1.8,0.8c-0.6,0.5-1.4,1.2-2.8,1.2s-2.2-0.7-2.8-1.2
		c-0.5-0.5-0.9-0.8-1.8-0.8s-1.3,0.3-1.8,0.8c-0.6,0.5-1.4,1.2-2.8,1.2c-1.4,0-2.2-0.7-2.8-1.2c-0.5-0.5-0.9-0.8-1.8-0.8
		s-1.3,0.3-1.8,0.8c-0.6,0.5-1.4,1.2-2.8,1.2c-1.4,0-2.2-0.7-2.8-1.2c-0.5-0.5-0.9-0.8-1.8-0.8c-0.9,0-1.3,0.3-1.8,0.8
		c-0.6,0.5-1.4,1.2-2.8,1.2c-1.4,0-2.2-0.7-2.8-1.2c-0.5-0.5-0.9-0.8-1.8-0.8c-0.9,0-1.3,0.3-1.8,0.8c-0.6,0.5-1.4,1.2-2.8,1.2
		s-2.2-0.7-2.8-1.2c-0.5-0.5-0.9-0.8-1.8-0.8c-0.9,0-1.3,0.3-1.8,0.8c-0.6,0.5-1.4,1.2-2.8,1.2s-2.2-0.7-2.8-1.2
		c-0.5-0.5-0.9-0.8-1.8-0.8c-0.9,0-1.3,0.3-1.8,0.8c-0.6,0.5-1.4,1.2-2.8,1.2s-2.2-0.7-2.8-1.2c-0.5-0.5-0.9-0.8-1.8-0.8
		s-1.3,0.3-1.8,0.8c-0.6,0.5-1.4,1.2-2.8,1.2c-1.4,0-2.2-0.7-2.8-1.2c-0.5-0.5-0.9-0.8-1.8-0.8c-0.9,0-1.3,0.3-1.8,0.8
		c-0.6,0.5-1.4,1.2-2.8,1.2c-1.4,0-2.2-0.7-2.8-1.2c-0.5-0.5-0.9-0.8-1.8-0.8s-1.3,0.3-1.8,0.8c-0.6,0.5-1.4,1.2-2.8,1.2
		c-1.4,0-2.2-0.7-2.8-1.2c-0.5-0.5-0.9-0.8-1.8-0.8c-0.9,0-1.3,0.3-1.8,0.8c-0.6,0.5-1.4,1.2-2.8,1.2c-1.4,0-2.2-0.7-2.8-1.2
		c-0.5-0.5-0.9-0.8-1.8-0.8c-0.9,0-1.3,0.3-1.8,0.8c-0.6,0.5-1.4,1.2-2.8,1.2c-1.4,0-2.2-0.7-2.8-1.2c-0.5-0.5-0.9-0.8-1.8-0.8
		c-0.9,0-1.3,0.3-1.8,0.8c-0.6,0.5-1.4,1.2-2.8,1.2c-1.4,0-2.2-0.7-2.8-1.2c-0.5-0.5-0.9-0.8-1.8-0.8c-0.9,0-1.3,0.3-1.8,0.8
		c-0.6,0.5-1.4,1.2-2.8,1.2c-1.4,0-2.2-0.7-2.8-1.2c-0.5-0.5-0.9-0.8-1.8-0.8c-0.9,0-1.3,0.3-1.8,0.8c-0.6,0.5-1.4,1.2-2.8,1.2
		s-2.2-0.7-2.8-1.2c-0.5-0.5-0.9-0.8-1.8-0.8c-0.9,0-1.3,0.3-1.8,0.8c-0.6,0.5-1.4,1.2-2.8,1.2c-1.4,0-2.2-0.7-2.8-1.2
		c-0.5-0.5-0.9-0.8-1.8-0.8s-1.3,0.3-1.8,0.8c-0.6,0.5-1.4,1.2-2.8,1.2c-1.4,0-2.2-0.7-2.8-1.2c-0.5-0.5-0.9-0.8-1.8-0.8
		c-0.9,0-1.3,0.3-1.8,0.8c-0.6,0.5-1.4,1.2-2.8,1.2s-2.2-0.7-2.8-1.2c-0.5-0.5-0.9-0.8-1.8-0.8c-0.4,0-0.8-0.3-0.8-0.8
		S0.3,16,0.8,16c1.4,0,2.2,0.7,2.8,1.2C4.1,17.7,4.5,18,5.3,18c0.9,0,1.3-0.3,1.8-0.8C7.7,16.7,8.5,16,9.9,16c1.4,0,2.2,0.7,2.8,1.2
		c0.5,0.5,0.9,0.8,1.8,0.8c0.9,0,1.3-0.3,1.8-0.8c0.6-0.5,1.4-1.2,2.8-1.2s2.2,0.7,2.8,1.2c0.5,0.5,0.9,0.8,1.8,0.8s1.3-0.3,1.8-0.8
		c0.6-0.5,1.4-1.2,2.8-1.2s2.2,0.7,2.8,1.2c0.5,0.5,0.9,0.8,1.8,0.8s1.3-0.3,1.8-0.8c0.6-0.5,1.4-1.2,2.8-1.2s2.2,0.7,2.8,1.2
		c0.5,0.5,0.9,0.8,1.8,0.8c0.9,0,1.3-0.3,1.8-0.8c0.6-0.5,1.4-1.2,2.8-1.2c1.4,0,2.2,0.7,2.8,1.2c0.5,0.5,0.9,0.8,1.8,0.8
		c0.9,0,1.3-0.3,1.8-0.8c0.6-0.5,1.4-1.2,2.8-1.2c1.4,0,2.2,0.7,2.8,1.2c0.5,0.5,0.9,0.8,1.8,0.8c0.9,0,1.3-0.3,1.8-0.8
		c0.6-0.5,1.4-1.2,2.8-1.2s2.2,0.7,2.8,1.2c0.5,0.5,0.9,0.8,1.8,0.8s1.3-0.3,1.8-0.8c0.6-0.5,1.4-1.2,2.8-1.2c1.4,0,2.2,0.7,2.8,1.2
		c0.5,0.5,0.9,0.8,1.8,0.8s1.3-0.3,1.8-0.8c0.6-0.5,1.4-1.2,2.8-1.2c1.4,0,2.2,0.7,2.8,1.2c0.5,0.5,0.9,0.8,1.8,0.8s1.3-0.3,1.8-0.8
		c0.6-0.5,1.4-1.2,2.8-1.2c1.4,0,2.2,0.7,2.8,1.2c0.5,0.5,0.9,0.8,1.8,0.8c0.9,0,1.3-0.3,1.8-0.8c0.6-0.5,1.4-1.2,2.8-1.2
		s2.2,0.7,2.8,1.2c0.5,0.5,0.9,0.8,1.8,0.8s1.3-0.3,1.8-0.8c0.6-0.5,1.4-1.2,2.8-1.2c1.4,0,2.2,0.7,2.8,1.2c0.5,0.5,0.9,0.8,1.8,0.8
		s1.3-0.3,1.8-0.8c0.6-0.5,1.4-1.2,2.8-1.2s2.2,0.7,2.8,1.2c0.5,0.5,0.9,0.8,1.8,0.8c0.9,0,1.3-0.3,1.8-0.8c0.6-0.5,1.4-1.2,2.8-1.2
		s2.2,0.7,2.8,1.2c0.5,0.5,0.9,0.8,1.8,0.8c0.9,0,1.3-0.3,1.8-0.8c0.6-0.5,1.4-1.2,2.8-1.2c1.4,0,2.2,0.7,2.8,1.2
		c0.5,0.5,0.9,0.8,1.8,0.8c0.9,0,1.3-0.3,1.8-0.8c0.6-0.5,1.4-1.2,2.8-1.2c1.4,0,2.2,0.7,2.8,1.2c0.5,0.5,0.9,0.8,1.8,0.8
		c0.9,0,1.3-0.3,1.8-0.8c0.6-0.5,1.4-1.2,2.8-1.2c1.4,0,2.2,0.7,2.8,1.2c0.5,0.5,0.9,0.8,1.8,0.8s1.3-0.3,1.8-0.8
		c0.6-0.5,1.4-1.2,2.8-1.2c1.4,0,2.2,0.7,2.8,1.2c0.5,0.5,0.9,0.8,1.8,0.8s1.3-0.3,1.8-0.8c0.6-0.5,1.4-1.2,2.8-1.2
		c1.4,0,2.2,0.7,2.8,1.2c0.5,0.5,0.9,0.8,1.8,0.8c0.9,0,1.3-0.3,1.8-0.8c0.6-0.5,1.4-1.2,2.8-1.2c1.4,0,2.2,0.7,2.8,1.2
		c0.5,0.5,0.9,0.8,1.8,0.8c0.4,0,0.8,0.3,0.8,0.8S189.2,19.5,188.8,19.5z"/>
</g>
</svg>
